<svg width="22" height="22" viewBox="0 0 22 22" fill="none" xmlns="http://www.w3.org/2000/svg">
<path d="M18 3C18.5523 3 19 3.44772 19 4V17C19 17.5523 18.5523 18 18 18H4L3.89746 17.9951C3.42703 17.9472 3.05278 17.573 3.00488 17.1025L3 17V4C3 3.48232 3.39333 3.05621 3.89746 3.00488L4 3H18ZM4.5 16.5H17.5V8H4.5V16.5ZM10.9463 9.26562C11.4409 9.26562 11.8424 9.39906 12.1504 9.66504C12.4724 9.94037 12.6338 10.3138 12.6338 10.7852C12.6338 11.0183 12.5864 11.235 12.4932 11.4355C12.4092 11.6175 12.281 11.7951 12.1084 11.9678L10.7852 13.2627H12.7383V14.25H9.28027V13.417L11.1631 11.5615C11.2843 11.4496 11.3662 11.345 11.4082 11.2471C11.4688 11.1305 11.499 10.9999 11.499 10.8555C11.499 10.6596 11.4342 10.5077 11.3037 10.4004C11.1824 10.2978 11.0283 10.2462 10.8418 10.2461C10.6505 10.2461 10.489 10.2947 10.3584 10.3926C10.2184 10.4906 10.1065 10.638 10.0225 10.834L9.18262 10.3438C9.36459 9.99387 9.59073 9.73003 9.86133 9.55273C10.1553 9.36143 10.517 9.26565 10.9463 9.26562Z" fill="white" fill-opacity="0.23" style="mix-blend-mode:lighten"/>
<path d="M18 3C18.5523 3 19 3.44772 19 4V17C19 17.5523 18.5523 18 18 18H4L3.89746 17.9951C3.42703 17.9472 3.05278 17.573 3.00488 17.1025L3 17V4C3 3.48232 3.39333 3.05621 3.89746 3.00488L4 3H18ZM4.5 16.5H17.5V8H4.5V16.5ZM10.9463 9.26562C11.4409 9.26562 11.8424 9.39906 12.1504 9.66504C12.4724 9.94037 12.6338 10.3138 12.6338 10.7852C12.6338 11.0183 12.5864 11.235 12.4932 11.4355C12.4092 11.6175 12.281 11.7951 12.1084 11.9678L10.7852 13.2627H12.7383V14.25H9.28027V13.417L11.1631 11.5615C11.2843 11.4496 11.3662 11.345 11.4082 11.2471C11.4688 11.1305 11.499 10.9999 11.499 10.8555C11.499 10.6596 11.4342 10.5077 11.3037 10.4004C11.1824 10.2978 11.0283 10.2462 10.8418 10.2461C10.6505 10.2461 10.489 10.2947 10.3584 10.3926C10.2184 10.4906 10.1065 10.638 10.0225 10.834L9.18262 10.3438C9.36459 9.99387 9.59073 9.73003 9.86133 9.55273C10.1553 9.36143 10.517 9.26565 10.9463 9.26562Z" fill="#545454" style="mix-blend-mode:color-dodge"/>
</svg>
