<svg width="46" height="46" viewBox="0 0 46 46" fill="none" xmlns="http://www.w3.org/2000/svg">
<path d="M30.6666 23.0003L15.3333 23.0003L15.3333 26.8337L30.6666 26.8337L30.6666 23.0003Z" fill="white" fill-opacity="0.23" style="mix-blend-mode:lighten"/>
<path d="M30.6666 23.0003L15.3333 23.0003L15.3333 26.8337L30.6666 26.8337L30.6666 23.0003Z" fill="#545454" style="mix-blend-mode:color-dodge"/>
<path d="M30.6666 30.667L15.3333 30.667L15.3333 34.5003L30.6666 34.5003L30.6666 30.667Z" fill="white" fill-opacity="0.23" style="mix-blend-mode:lighten"/>
<path d="M30.6666 30.667L15.3333 30.667L15.3333 34.5003L30.6666 34.5003L30.6666 30.667Z" fill="#545454" style="mix-blend-mode:color-dodge"/>
<path fill-rule="evenodd" clip-rule="evenodd" d="M32.5833 42.167C35.7589 42.167 38.3333 39.5926 38.3333 36.417L38.3333 14.5588C38.3333 13.1383 37.8067 11.7682 36.8565 10.7123L32.3793 5.73723C31.3572 4.60163 29.9286 3.92176 28.4112 3.84115L28.1061 3.83366L13.4166 3.83366C10.241 3.83366 7.66663 6.40803 7.66663 9.58366L7.66663 36.417C7.66663 39.5926 10.241 42.167 13.4166 42.167L32.5833 42.167ZM13.4166 38.3337C12.3581 38.3337 11.5 37.4755 11.5 36.417L11.5 9.58366C11.5 8.52512 12.3581 7.667 13.4166 7.667L24.9166 7.66699L24.9166 14.3753C24.9166 15.9631 26.2038 17.2503 27.7916 17.2503L34.5 17.2503L34.5 36.417C34.5 37.4755 33.6418 38.3337 32.5833 38.3337L13.4166 38.3337ZM28.75 13.417L28.75 7.78117C29.046 7.887 29.3156 8.06281 29.5305 8.30152L34.0077 13.2766C34.0482 13.3217 34.086 13.3687 34.1219 13.417L28.75 13.417Z" fill="white" fill-opacity="0.23" style="mix-blend-mode:lighten"/>
<path fill-rule="evenodd" clip-rule="evenodd" d="M32.5833 42.167C35.7589 42.167 38.3333 39.5926 38.3333 36.417L38.3333 14.5588C38.3333 13.1383 37.8067 11.7682 36.8565 10.7123L32.3793 5.73723C31.3572 4.60163 29.9286 3.92176 28.4112 3.84115L28.1061 3.83366L13.4166 3.83366C10.241 3.83366 7.66663 6.40803 7.66663 9.58366L7.66663 36.417C7.66663 39.5926 10.241 42.167 13.4166 42.167L32.5833 42.167ZM13.4166 38.3337C12.3581 38.3337 11.5 37.4755 11.5 36.417L11.5 9.58366C11.5 8.52512 12.3581 7.667 13.4166 7.667L24.9166 7.66699L24.9166 14.3753C24.9166 15.9631 26.2038 17.2503 27.7916 17.2503L34.5 17.2503L34.5 36.417C34.5 37.4755 33.6418 38.3337 32.5833 38.3337L13.4166 38.3337ZM28.75 13.417L28.75 7.78117C29.046 7.887 29.3156 8.06281 29.5305 8.30152L34.0077 13.2766C34.0482 13.3217 34.086 13.3687 34.1219 13.417L28.75 13.417Z" fill="#545454" style="mix-blend-mode:color-dodge"/>
</svg>
