<svg width="22" height="22" viewBox="0 0 22 22" fill="none" xmlns="http://www.w3.org/2000/svg">
<path d="M11 2C15.9706 2 20 6.02944 20 11C20 15.9706 15.9706 20 11 20C6.02944 20 2 15.9706 2 11C2 6.02944 6.02944 2 11 2ZM11 4C7.13401 4 4 7.13401 4 11C4 14.866 7.13401 18 11 18C14.866 18 18 14.866 18 11C18 7.13401 14.866 4 11 4ZM12.5 11.3896C12.4998 12.1395 12.0802 12.8266 11.4131 13.1689L7.45703 15.1992L6.54297 13.4199L10.5 11.3896V6H12.5V11.3896Z" fill="white" fill-opacity="0.23" style="mix-blend-mode:lighten"/>
<path d="M11 2C15.9706 2 20 6.02944 20 11C20 15.9706 15.9706 20 11 20C6.02944 20 2 15.9706 2 11C2 6.02944 6.02944 2 11 2ZM11 4C7.13401 4 4 7.13401 4 11C4 14.866 7.13401 18 11 18C14.866 18 18 14.866 18 11C18 7.13401 14.866 4 11 4ZM12.5 11.3896C12.4998 12.1395 12.0802 12.8266 11.4131 13.1689L7.45703 15.1992L6.54297 13.4199L10.5 11.3896V6H12.5V11.3896Z" fill="#545454" style="mix-blend-mode:color-dodge"/>
</svg>
