<svg version="1.0" xmlns="http://www.w3.org/2000/svg"  width="600.000000pt" height="629.000000pt" viewBox="0 0 600.000000 629.000000"  preserveAspectRatio="xMidYMid meet"> <g transform="translate(0.000000,629.000000) scale(0.100000,-0.100000)" fill="#000000" stroke="none"> <path d="M3778 6279 c-3 -8 -78 -16 -218 -25 -118 -7 -231 -16 -250 -19 -19 -3 -107 -10 -195 -15 -88 -5 -216 -14 -285 -20 -230 -19 -650 -51 -930 -70 -133 -10 -446 -34 -645 -50 -66 -6 -190 -15 -275 -20 -85 -5 -189 -14 -230 -20 -41 -5 -115 -10 -165 -10 -144 -1 -307 -27 -374 -60 -87 -43 -181 -158 -181 -223 0 -10 -7 -20 -15 -23 -13 -5 -15 -242 -15 -2049 0 -1712 2 -2044 14 -2048 7 -3 16 -24 20 -47 3 -22 10 -49 15 -58 5 -9 19 -37 31 -62 27 -55 101 -165 188 -279 79 -102 77 -99 102 -130 11 -13 20 -27 20 -30 0 -4 14 -22 32 -41 17 -19 47 -57 66 -85 19 -27 38 -52 42 -55 3 -3 33 -41 65 -85 32 -44 61 -82 64 -85 3 -3 26 -32 50 -65 25 -33 47 -62 50 -65 3 -3 19 -24 35 -47 16 -24 39 -53 51 -65 12 -13 36 -44 53 -70 18 -25 38 -52 45 -60 7 -7 33 -40 57 -73 50 -69 147 -165 165 -165 7 0 18 -7 25 -15 7 -8 23 -15 35 -15 12 0 28 -7 35 -15 10 -13 53 -15 269 -15 171 0 261 4 268 11 6 6 97 14 229 19 121 5 275 13 344 19 119 10 256 18 705 41 110 6 256 15 325 21 69 5 206 14 305 19 241 12 497 27 745 45 113 9 239 15 280 15 41 0 158 7 260 14 102 8 250 18 330 21 183 8 370 31 435 53 119 40 197 118 220 220 3 17 11 34 16 37 5 4 9 900 9 2276 l0 2271 -35 51 c-38 57 -91 98 -365 287 -62 43 -181 127 -195 137 -5 5 -21 16 -35 25 -14 9 -56 39 -95 67 -38 27 -108 76 -155 108 -47 31 -87 60 -90 63 -5 5 -29 22 -130 91 -36 25 -89 62 -117 82 -29 20 -77 53 -105 74 -29 20 -55 39 -58 42 -32 38 -214 135 -281 150 -24 5 -45 15 -47 20 -5 16 -509 15 -514 0z m453 -367 c101 -23 182 -60 266 -121 118 -87 278 -203 399 -289 208 -149 246 -180 242 -205 -3 -19 -11 -23 -63 -28 -33 -4 -94 -7 -135 -8 -41 0 -163 -7 -270 -16 -107 -8 -283 -19 -390 -25 -107 -6 -298 -17 -425 -25 -126 -7 -315 -19 -420 -25 -104 -6 -275 -17 -380 -25 -104 -9 -219 -15 -255 -15 -36 0 -157 -6 -270 -15 -634 -46 -1137 -69 -1231 -55 -110 16 -141 34 -369 215 -80 63 -193 152 -252 198 -59 45 -115 97 -125 114 -18 33 -17 33 10 60 26 26 35 28 209 45 101 9 219 17 263 17 44 1 145 7 225 15 154 16 367 32 620 46 85 5 207 14 270 20 63 6 178 15 255 20 327 22 456 31 560 41 61 6 192 14 293 20 101 5 187 11 192 14 5 3 98 10 207 15 109 6 223 15 253 19 98 15 232 12 321 -7z m1279 -1092 c17 -12 40 -43 51 -67 18 -43 19 -98 19 -1951 0 -1753 -1 -1910 -17 -1952 -20 -54 -55 -95 -105 -121 -38 -19 -119 -27 -513 -49 -185 -10 -534 -31 -845 -51 -96 -6 -256 -14 -355 -19 -99 -4 -250 -13 -335 -19 -156 -11 -356 -23 -700 -41 -102 -5 -247 -14 -322 -20 -76 -6 -233 -15 -350 -21 -117 -5 -251 -14 -298 -19 -149 -16 -312 -12 -357 7 -52 24 -84 51 -108 93 -20 35 -20 53 -20 1976 l0 1941 28 36 c41 54 99 77 194 77 43 0 152 7 243 15 91 8 201 15 245 15 44 0 168 6 275 14 107 9 287 20 400 26 113 6 311 17 440 25 129 7 323 18 430 24 107 6 256 16 330 21 74 6 189 12 255 15 114 5 377 21 785 46 522 33 582 33 630 -1z"/> <path d="M4665 4159 c-44 -4 -181 -12 -304 -18 -265 -13 -303 -23 -361 -88 -40 -46 -54 -87 -48 -139 3 -28 6 -29 68 -36 36 -4 106 -13 155 -21 l90 -13 3 -824 c1 -469 -2 -828 -7 -833 -5 -5 -22 14 -40 45 -50 83 -54 91 -83 129 -16 20 -28 39 -28 43 0 3 -22 38 -49 78 -26 40 -83 127 -126 193 -93 143 -153 235 -271 415 -49 74 -91 139 -93 145 -2 5 -19 30 -36 55 -17 25 -34 50 -36 55 -4 11 -137 213 -250 383 -38 56 -69 105 -69 107 0 8 -142 214 -155 225 -9 8 -54 6 -165 -5 -84 -8 -192 -15 -239 -15 -47 0 -147 -7 -221 -15 -74 -8 -170 -15 -212 -15 -115 0 -196 -37 -240 -110 -16 -26 -21 -52 -22 -105 l-1 -70 35 -2 c89 -7 227 -26 243 -34 16 -9 17 -74 15 -1206 l-3 -1196 -65 -19 c-204 -59 -212 -64 -230 -138 -12 -52 -8 -85 13 -93 7 -3 51 -1 98 3 46 5 183 14 304 20 399 20 545 34 591 58 63 32 124 108 124 154 0 33 -3 38 -27 43 -69 15 -162 38 -207 51 -26 8 -60 14 -75 14 -32 0 -44 8 -60 37 -12 24 -16 1749 -3 1757 9 5 46 -24 55 -44 4 -8 15 -27 25 -42 9 -14 29 -46 44 -70 14 -23 55 -87 90 -140 35 -53 81 -125 102 -160 22 -35 64 -101 95 -148 61 -92 76 -117 87 -139 4 -8 35 -56 68 -107 34 -51 79 -121 100 -156 22 -35 58 -92 81 -128 23 -36 63 -99 89 -140 27 -41 57 -87 67 -102 10 -15 19 -29 19 -32 0 -3 19 -33 43 -68 24 -35 62 -94 86 -133 62 -103 62 -104 110 -174 102 -151 190 -242 269 -277 46 -20 71 -24 160 -24 67 0 125 6 161 16 73 21 221 83 243 102 17 14 18 94 20 1355 l3 1341 85 22 c47 13 95 23 107 23 12 1 38 16 57 35 35 33 36 35 36 110 l0 76 -117 -2 c-65 0 -154 -4 -198 -9z"/> </g> </svg>