<svg width="24" height="24" viewBox="0 0 24 24" fill="none" xmlns="http://www.w3.org/2000/svg">
<path d="M4.2034 9.74487L11.7034 4.21855C11.8798 4.08859 12.1202 4.08859 12.2966 4.21855L19.7966 9.74487C19.9245 9.83911 20 9.98852 20 10.1474V19.5C20 19.7761 19.7761 20 19.5 20H15C14.7239 20 14.5 19.7761 14.5 19.5V13.4825C14.5 13.2063 14.2761 12.9825 14 12.9825H10C9.72386 12.9825 9.5 13.2063 9.5 13.4825V19.5C9.5 19.7761 9.27614 20 9 20H4.5C4.22386 20 4 19.7761 4 19.5V10.1474C4 9.98852 4.0755 9.83911 4.2034 9.74487Z" stroke="white" stroke-opacity="0.96" stroke-width="2"/>
</svg>
