<svg width="24" height="24" viewBox="0 0 24 24" fill="none" xmlns="http://www.w3.org/2000/svg">
<path fill-rule="evenodd" clip-rule="evenodd" d="M16.6865 2.95223C17.5237 2.72816 18.3849 3.22457 18.6094 4.06161L22.2949 17.8194C22.519 18.6565 22.0225 19.5168 21.1855 19.7413L17.8828 20.6261C17.0458 20.85 16.1854 20.3536 15.9609 19.5167L14.1045 12.588V19.1475C14.1041 20.014 13.4016 20.7167 12.5352 20.7169H9.11621C8.91508 20.7168 8.7236 20.6765 8.54688 20.6075C8.3702 20.6765 8.17861 20.7168 7.97754 20.7169H4.5586C3.69219 20.7166 2.98968 20.0139 2.98926 19.1475V4.90438C2.98945 4.03781 3.69206 3.33535 4.5586 3.33504H7.97754C8.17845 3.3351 8.37031 3.37363 8.54688 3.44247C8.72348 3.37358 8.91524 3.33511 9.11621 3.33504H12.5352C12.9568 3.33515 13.3391 3.5019 13.6211 3.77254L16.6865 2.95223ZM4.98926 18.7169H7.54688V5.33504H4.98926V18.7169ZM9.54688 18.7169H12.1045V5.33504H9.54688V18.7169ZM14.3184 5.65731L17.7813 18.5831L20.252 17.921L16.7881 4.9952L14.3184 5.65731Z" fill="white" fill-opacity="0.23" style="mix-blend-mode:lighten"/>
<path fill-rule="evenodd" clip-rule="evenodd" d="M16.6865 2.95223C17.5237 2.72816 18.3849 3.22457 18.6094 4.06161L22.2949 17.8194C22.519 18.6565 22.0225 19.5168 21.1855 19.7413L17.8828 20.6261C17.0458 20.85 16.1854 20.3536 15.9609 19.5167L14.1045 12.588V19.1475C14.1041 20.014 13.4016 20.7167 12.5352 20.7169H9.11621C8.91508 20.7168 8.7236 20.6765 8.54688 20.6075C8.3702 20.6765 8.17861 20.7168 7.97754 20.7169H4.5586C3.69219 20.7166 2.98968 20.0139 2.98926 19.1475V4.90438C2.98945 4.03781 3.69206 3.33535 4.5586 3.33504H7.97754C8.17845 3.3351 8.37031 3.37363 8.54688 3.44247C8.72348 3.37358 8.91524 3.33511 9.11621 3.33504H12.5352C12.9568 3.33515 13.3391 3.5019 13.6211 3.77254L16.6865 2.95223ZM4.98926 18.7169H7.54688V5.33504H4.98926V18.7169ZM9.54688 18.7169H12.1045V5.33504H9.54688V18.7169ZM14.3184 5.65731L17.7813 18.5831L20.252 17.921L16.7881 4.9952L14.3184 5.65731Z" fill="#545454" style="mix-blend-mode:color-dodge"/>
</svg>
