<svg width="24" height="24" viewBox="0 0 24 24" fill="none" xmlns="http://www.w3.org/2000/svg">
<path d="M16 12.001L8 12.001L8 14.001L16 14.001L16 12.001Z" fill="white"/>
<path d="M16 16.001L8 16.001L8 18.001L16 18.001L16 16.001Z" fill="white"/>
<path fill-rule="evenodd" clip-rule="evenodd" d="M17 22.001C18.6569 22.001 20 20.6578 20 19.001L20 7.59668C20 6.85555 19.7253 6.14072 19.2295 5.58984L16.8936 2.99414C16.3603 2.40165 15.615 2.04694 14.8232 2.00488L14.6641 2.00098L7 2.00098C5.34315 2.00098 4 3.34412 4 5.00098L4 19.001C4 20.6578 5.34315 22.001 7 22.001L17 22.001ZM7 20.001C6.44772 20.001 6 19.5533 6 19.001L6 5.00098C6 4.44869 6.44772 4.00098 7 4.00098L13 4.00098L13 7.50098C13 8.32941 13.6716 9.00098 14.5 9.00098L18 9.00098L18 19.001C18 19.5533 17.5523 20.001 17 20.001L7 20.001ZM15 7.00098L15 4.06055C15.1545 4.11576 15.2951 4.20749 15.4072 4.33203L17.7432 6.92774C17.7643 6.95123 17.784 6.97579 17.8027 7.00098L15 7.00098Z" fill="white"/>
</svg>
