<svg width="24" height="24" viewBox="0 0 24 24" fill="none" xmlns="http://www.w3.org/2000/svg">
<path fill-rule="evenodd" clip-rule="evenodd" d="M7.00387 21.7537L12 18.992L16.9961 21.7537C17.7266 22.1576 18.6012 21.5414 18.4668 20.7176L17.5 14.7903L21.6409 10.5462C22.2093 9.96363 21.8808 8.98226 21.0762 8.85933L15.3992 7.99196L12.9052 2.67862C12.5453 1.91181 11.4546 1.91182 11.0947 2.67862L8.60078 7.99196L2.92376 8.85933C2.11917 8.98226 1.79063 9.96363 2.35904 10.5462L6.49997 14.7903L5.53312 20.7176C5.39873 21.5414 6.2733 22.1576 7.00387 21.7537ZM7.82827 18.95L12 16.6439L16.1717 18.95L15.375 14.0656L18.75 10.6065L14.0859 9.89388L12 5.44995L9.91414 9.89388L5.25 10.6065L8.625 14.0656L7.82827 18.95Z" fill="white" fill-opacity="0.96"/>
</svg>
