<svg width="24" height="24" viewBox="0 0 24 24" fill="none" xmlns="http://www.w3.org/2000/svg">
<path d="M16.0001 12.001L8.00005 12.001L8.00005 14.001L16.0001 14.001L16.0001 12.001Z" fill="white" fill-opacity="0.5"/>
<path d="M16.0001 16.001L8.00005 16.001L8.00005 18.001L16.0001 18.001L16.0001 16.001Z" fill="white" fill-opacity="0.5"/>
<path fill-rule="evenodd" clip-rule="evenodd" d="M17.0001 22.001C18.6569 22.001 20.0001 20.6578 20.0001 19.001L20.0001 7.59668C20.0001 6.85555 19.7253 6.14072 19.2295 5.58984L16.8936 2.99414C16.3603 2.40165 15.615 2.04694 14.8233 2.00488L14.6641 2.00098L7.00005 2.00098C5.3432 2.00098 4.00005 3.34412 4.00005 5.00098L4.00005 19.001C4.00005 20.6578 5.3432 22.001 7.00005 22.001L17.0001 22.001ZM7.00005 20.001C6.44777 20.001 6.00005 19.5533 6.00005 19.001L6.00005 5.00098C6.00005 4.44869 6.44777 4.00098 7.00005 4.00098L13.0001 4.00098L13.0001 7.50098C13.0001 8.32941 13.6716 9.00098 14.5001 9.00098L18.0001 9.00098L18.0001 19.001C18.0001 19.5533 17.5523 20.001 17.0001 20.001L7.00005 20.001ZM15.0001 7.00098L15.0001 4.06055C15.1545 4.11576 15.2952 4.20749 15.4073 4.33203L17.7432 6.92774C17.7644 6.95123 17.7841 6.97579 17.8028 7.00098L15.0001 7.00098Z" fill="white" fill-opacity="0.5"/>
</svg>
