<svg width="24" height="24" viewBox="0 0 24 24" fill="none" xmlns="http://www.w3.org/2000/svg">
<path d="M14.3662 4.66797C15.4076 4.29476 16.4827 4.30353 17.4443 4.52539C18.403 4.74668 19.287 5.18727 19.9775 5.72852C20.646 6.25255 21.2393 6.95719 21.4395 7.75782L19.5 8.24219C19.4501 8.04298 19.2304 7.68469 18.7432 7.30274C18.2778 6.938 17.661 6.62839 16.9951 6.47461C16.3322 6.32163 15.6565 6.33069 15.042 6.55079C14.4397 6.76669 13.8315 7.20775 13.3174 8.03028L13.3096 8.042L13.3018 8.05469L6.1709 18.749L11.1221 19.5117L10.8174 21.4883L4.78223 20.5596C3.84317 20.4148 3.37133 19.3444 3.89844 18.5537L11.6377 6.94532C12.3713 5.78258 13.3199 5.04315 14.3662 4.66797ZM16.4697 9C17.2979 9.00027 17.9697 9.67174 17.9697 10.5C17.9697 11.3283 17.2979 11.9997 16.4697 12C15.6413 12 14.9697 11.3284 14.9697 10.5C14.9697 9.67158 15.6413 9 16.4697 9ZM7.46973 7C8.29793 7.00027 8.96973 7.67174 8.96973 8.5C8.96973 9.32827 8.29793 9.99974 7.46973 10C6.6413 10 5.96973 9.32843 5.96973 8.5C5.96973 7.67158 6.6413 7 7.46973 7ZM6.96973 3C9.57363 3.00023 10.6797 4.96904 10.918 5.6836L9.96973 6L9.02051 6.31641C8.92531 6.03078 8.36482 5.00022 6.96973 5C5.51543 5 5.0175 5.93076 4.93946 6.24219L3 5.75782C3.25561 4.73557 4.42464 3 6.96973 3Z" fill="white" fill-opacity="0.23" style="mix-blend-mode:lighten"/>
<path d="M14.3662 4.66797C15.4076 4.29476 16.4827 4.30353 17.4443 4.52539C18.403 4.74668 19.287 5.18727 19.9775 5.72852C20.646 6.25255 21.2393 6.95719 21.4395 7.75782L19.5 8.24219C19.4501 8.04298 19.2304 7.68469 18.7432 7.30274C18.2778 6.938 17.661 6.62839 16.9951 6.47461C16.3322 6.32163 15.6565 6.33069 15.042 6.55079C14.4397 6.76669 13.8315 7.20775 13.3174 8.03028L13.3096 8.042L13.3018 8.05469L6.1709 18.749L11.1221 19.5117L10.8174 21.4883L4.78223 20.5596C3.84317 20.4148 3.37133 19.3444 3.89844 18.5537L11.6377 6.94532C12.3713 5.78258 13.3199 5.04315 14.3662 4.66797ZM16.4697 9C17.2979 9.00027 17.9697 9.67174 17.9697 10.5C17.9697 11.3283 17.2979 11.9997 16.4697 12C15.6413 12 14.9697 11.3284 14.9697 10.5C14.9697 9.67158 15.6413 9 16.4697 9ZM7.46973 7C8.29793 7.00027 8.96973 7.67174 8.96973 8.5C8.96973 9.32827 8.29793 9.99974 7.46973 10C6.6413 10 5.96973 9.32843 5.96973 8.5C5.96973 7.67158 6.6413 7 7.46973 7ZM6.96973 3C9.57363 3.00023 10.6797 4.96904 10.918 5.6836L9.96973 6L9.02051 6.31641C8.92531 6.03078 8.36482 5.00022 6.96973 5C5.51543 5 5.0175 5.93076 4.93946 6.24219L3 5.75782C3.25561 4.73557 4.42464 3 6.96973 3Z" fill="#545454" style="mix-blend-mode:color-dodge"/>
</svg>
