<svg width="46" height="46" viewBox="0 0 46 46" fill="none" xmlns="http://www.w3.org/2000/svg">
<path d="M30.6666 22.9994L15.3333 22.9994L15.3333 26.8327L30.6666 26.8327L30.6666 22.9994Z" fill="white" fill-opacity="0.23" style="mix-blend-mode:lighten"/>
<path d="M30.6666 22.9994L15.3333 22.9994L15.3333 26.8327L30.6666 26.8327L30.6666 22.9994Z" fill="#545454" style="mix-blend-mode:color-dodge"/>
<path d="M30.6666 30.666L15.3333 30.666L15.3333 34.4994L30.6666 34.4994L30.6666 30.666Z" fill="white" fill-opacity="0.23" style="mix-blend-mode:lighten"/>
<path d="M30.6666 30.666L15.3333 30.666L15.3333 34.4994L30.6666 34.4994L30.6666 30.666Z" fill="#545454" style="mix-blend-mode:color-dodge"/>
<path fill-rule="evenodd" clip-rule="evenodd" d="M32.5833 42.166C35.7589 42.166 38.3333 39.5917 38.3333 36.416L38.3333 14.5578C38.3333 13.1373 37.8067 11.7672 36.8565 10.7113L32.3793 5.73625C31.3572 4.60065 29.9286 3.92079 28.4112 3.84017L28.1061 3.83269L13.4166 3.83269C10.241 3.83269 7.66663 6.40705 7.66663 9.58269L7.66663 36.416C7.66663 39.5917 10.241 42.166 13.4166 42.166L32.5833 42.166ZM13.4166 38.3327C12.3581 38.3327 11.5 37.4746 11.5 36.416L11.5 9.58269C11.5 8.52414 12.3581 7.66602 13.4166 7.66602L24.9166 7.66602L24.9166 14.3744C24.9166 15.9622 26.2038 17.2494 27.7916 17.2494L34.5 17.2494L34.5 36.416C34.5 37.4746 33.6418 38.3327 32.5833 38.3327L13.4166 38.3327ZM28.75 13.416L28.75 7.7802C29.046 7.88602 29.3156 8.06184 29.5305 8.30054L34.0077 13.2756C34.0482 13.3207 34.086 13.3677 34.1219 13.416L28.75 13.416Z" fill="white" fill-opacity="0.23" style="mix-blend-mode:lighten"/>
<path fill-rule="evenodd" clip-rule="evenodd" d="M32.5833 42.166C35.7589 42.166 38.3333 39.5917 38.3333 36.416L38.3333 14.5578C38.3333 13.1373 37.8067 11.7672 36.8565 10.7113L32.3793 5.73625C31.3572 4.60065 29.9286 3.92079 28.4112 3.84017L28.1061 3.83269L13.4166 3.83269C10.241 3.83269 7.66663 6.40705 7.66663 9.58269L7.66663 36.416C7.66663 39.5917 10.241 42.166 13.4166 42.166L32.5833 42.166ZM13.4166 38.3327C12.3581 38.3327 11.5 37.4746 11.5 36.416L11.5 9.58269C11.5 8.52414 12.3581 7.66602 13.4166 7.66602L24.9166 7.66602L24.9166 14.3744C24.9166 15.9622 26.2038 17.2494 27.7916 17.2494L34.5 17.2494L34.5 36.416C34.5 37.4746 33.6418 38.3327 32.5833 38.3327L13.4166 38.3327ZM28.75 13.416L28.75 7.7802C29.046 7.88602 29.3156 8.06184 29.5305 8.30054L34.0077 13.2756C34.0482 13.3207 34.086 13.3677 34.1219 13.416L28.75 13.416Z" fill="#545454" style="mix-blend-mode:color-dodge"/>
</svg>
