<svg width="24" height="24" viewBox="0 0 24 24" fill="none" xmlns="http://www.w3.org/2000/svg">
<path d="M14.3662 4.66895C15.4076 4.29573 16.4827 4.30451 17.4443 4.52637C18.403 4.74766 19.287 5.18824 19.9775 5.7295C20.646 6.25353 21.2393 6.95817 21.4395 7.75879L19.5 8.24317C19.4501 8.04396 19.2304 7.68567 18.7432 7.30371C18.2778 6.93898 17.661 6.62937 16.9951 6.47559C16.3322 6.3226 15.6565 6.33167 15.042 6.55176C14.4397 6.76767 13.8315 7.20872 13.3174 8.03125L13.3096 8.04297L13.3018 8.05567L6.1709 18.75L11.1221 19.5127L10.8174 21.4893L4.78223 20.5606C3.84317 20.4158 3.37133 19.3454 3.89844 18.5547L11.6377 6.94629C12.3713 5.78356 13.3199 5.04413 14.3662 4.66895ZM16.4697 9.00098C17.2979 9.00124 17.9697 9.67272 17.9697 10.501C17.9697 11.3292 17.2979 12.0007 16.4697 12.001C15.6413 12.001 14.9697 11.3294 14.9697 10.501C14.9697 9.67255 15.6413 9.00098 16.4697 9.00098ZM7.46973 7.00098C8.29793 7.00124 8.96973 7.67272 8.96973 8.50098C8.96973 9.32924 8.29793 10.0007 7.46973 10.001C6.6413 10.001 5.96973 9.32941 5.96973 8.50098C5.96973 7.67255 6.6413 7.00098 7.46973 7.00098ZM6.96973 3.00098C9.57363 3.0012 10.6797 4.97001 10.918 5.68457L9.96973 6.00098L9.02051 6.31739C8.92531 6.03176 8.36482 5.0012 6.96973 5.00098C5.51543 5.00098 5.0175 5.93174 4.93946 6.24317L3 5.75879C3.25561 4.73655 4.42464 3.00098 6.96973 3.00098Z" fill="white" fill-opacity="0.23" style="mix-blend-mode:lighten"/>
<path d="M14.3662 4.66895C15.4076 4.29573 16.4827 4.30451 17.4443 4.52637C18.403 4.74766 19.287 5.18824 19.9775 5.7295C20.646 6.25353 21.2393 6.95817 21.4395 7.75879L19.5 8.24317C19.4501 8.04396 19.2304 7.68567 18.7432 7.30371C18.2778 6.93898 17.661 6.62937 16.9951 6.47559C16.3322 6.3226 15.6565 6.33167 15.042 6.55176C14.4397 6.76767 13.8315 7.20872 13.3174 8.03125L13.3096 8.04297L13.3018 8.05567L6.1709 18.75L11.1221 19.5127L10.8174 21.4893L4.78223 20.5606C3.84317 20.4158 3.37133 19.3454 3.89844 18.5547L11.6377 6.94629C12.3713 5.78356 13.3199 5.04413 14.3662 4.66895ZM16.4697 9.00098C17.2979 9.00124 17.9697 9.67272 17.9697 10.501C17.9697 11.3292 17.2979 12.0007 16.4697 12.001C15.6413 12.001 14.9697 11.3294 14.9697 10.501C14.9697 9.67255 15.6413 9.00098 16.4697 9.00098ZM7.46973 7.00098C8.29793 7.00124 8.96973 7.67272 8.96973 8.50098C8.96973 9.32924 8.29793 10.0007 7.46973 10.001C6.6413 10.001 5.96973 9.32941 5.96973 8.50098C5.96973 7.67255 6.6413 7.00098 7.46973 7.00098ZM6.96973 3.00098C9.57363 3.0012 10.6797 4.97001 10.918 5.68457L9.96973 6.00098L9.02051 6.31739C8.92531 6.03176 8.36482 5.0012 6.96973 5.00098C5.51543 5.00098 5.0175 5.93174 4.93946 6.24317L3 5.75879C3.25561 4.73655 4.42464 3.00098 6.96973 3.00098Z" fill="#545454" style="mix-blend-mode:color-dodge"/>
</svg>
