<svg width="2776" height="101" viewBox="0 0 2776 101" fill="none" xmlns="http://www.w3.org/2000/svg">
<path d="M-5.33333 0C-5.33333 2.94552 -2.94552 5.33333 0 5.33333C2.94552 5.33333 5.33333 2.94552 5.33333 0C5.33333 -2.94552 2.94552 -5.33333 0 -5.33333C-2.94552 -5.33333 -5.33333 -2.94552 -5.33333 0ZM2776 0L2766 -5.7735V5.7735L2776 0ZM1781.17 101C1781.17 103.946 1783.55 106.333 1786.5 106.333C1789.45 106.333 1791.83 103.946 1791.83 101C1791.83 98.0545 1789.45 95.6667 1786.5 95.6667C1783.55 95.6667 1781.17 98.0545 1781.17 101ZM0 0V1H2186.5V0V-1H0V0ZM2186.5 0V1H2767V0V-1H2186.5V0ZM2186.5 0H2185.5V100H2186.5H2187.5V0H2186.5ZM2185.5 101V100H1786.5V101V102H2185.5V101ZM2186.5 100H2185.5V100V101V102C2186.6 102 2187.5 101.105 2187.5 100H2186.5Z" fill="#D90000"/>
</svg>
