<svg width="46" height="46" viewBox="0 0 46 46" fill="none" xmlns="http://www.w3.org/2000/svg">
<path d="M30.6667 22.9994L15.3334 22.9994L15.3334 26.8327L30.6667 26.8327L30.6667 22.9994Z" fill="white" fill-opacity="0.23" style="mix-blend-mode:lighten"/>
<path d="M30.6667 22.9994L15.3334 22.9994L15.3334 26.8327L30.6667 26.8327L30.6667 22.9994Z" fill="#545454" style="mix-blend-mode:color-dodge"/>
<path d="M30.6667 30.666L15.3334 30.666L15.3334 34.4994L30.6667 34.4994L30.6667 30.666Z" fill="white" fill-opacity="0.23" style="mix-blend-mode:lighten"/>
<path d="M30.6667 30.666L15.3334 30.666L15.3334 34.4994L30.6667 34.4994L30.6667 30.666Z" fill="#545454" style="mix-blend-mode:color-dodge"/>
<path fill-rule="evenodd" clip-rule="evenodd" d="M32.5834 42.166C35.759 42.166 38.3334 39.5917 38.3334 36.416L38.3334 14.5578C38.3334 13.1373 37.8068 11.7672 36.8565 10.7113L32.3793 5.73625C31.3572 4.60065 29.9287 3.92079 28.4112 3.84017L28.1061 3.83269L13.4167 3.83269C10.2411 3.83269 7.66669 6.40705 7.66669 9.58269L7.66669 36.416C7.66669 39.5917 10.2411 42.166 13.4167 42.166L32.5834 42.166ZM13.4167 38.3327C12.3581 38.3327 11.5 37.4746 11.5 36.416L11.5 9.58269C11.5 8.52414 12.3581 7.66602 13.4167 7.66602L24.9167 7.66602L24.9167 14.3744C24.9167 15.9622 26.2039 17.2494 27.7917 17.2494L34.5 17.2494L34.5 36.416C34.5 37.4746 33.6419 38.3327 32.5834 38.3327L13.4167 38.3327ZM28.75 13.416L28.75 7.7802C29.0461 7.88602 29.3157 8.06184 29.5305 8.30054L34.0078 13.2756C34.0483 13.3207 34.0861 13.3677 34.1219 13.416L28.75 13.416Z" fill="white" fill-opacity="0.23" style="mix-blend-mode:lighten"/>
<path fill-rule="evenodd" clip-rule="evenodd" d="M32.5834 42.166C35.759 42.166 38.3334 39.5917 38.3334 36.416L38.3334 14.5578C38.3334 13.1373 37.8068 11.7672 36.8565 10.7113L32.3793 5.73625C31.3572 4.60065 29.9287 3.92079 28.4112 3.84017L28.1061 3.83269L13.4167 3.83269C10.2411 3.83269 7.66669 6.40705 7.66669 9.58269L7.66669 36.416C7.66669 39.5917 10.2411 42.166 13.4167 42.166L32.5834 42.166ZM13.4167 38.3327C12.3581 38.3327 11.5 37.4746 11.5 36.416L11.5 9.58269C11.5 8.52414 12.3581 7.66602 13.4167 7.66602L24.9167 7.66602L24.9167 14.3744C24.9167 15.9622 26.2039 17.2494 27.7917 17.2494L34.5 17.2494L34.5 36.416C34.5 37.4746 33.6419 38.3327 32.5834 38.3327L13.4167 38.3327ZM28.75 13.416L28.75 7.7802C29.0461 7.88602 29.3157 8.06184 29.5305 8.30054L34.0078 13.2756C34.0483 13.3207 34.0861 13.3677 34.1219 13.416L28.75 13.416Z" fill="#545454" style="mix-blend-mode:color-dodge"/>
</svg>
