<svg width="24" height="24" viewBox="0 0 24 24" fill="none" xmlns="http://www.w3.org/2000/svg">
<path fill-rule="evenodd" clip-rule="evenodd" d="M18.75 7.75C19.3023 7.75 19.75 8.19772 19.75 8.75V18.75C19.75 19.2677 19.3567 19.6938 18.8525 19.7451L18.75 19.75H8.75L8.64746 19.7451C8.17704 19.6972 7.80278 19.323 7.75488 18.8525L7.75 18.75V8.75C7.75 8.19772 8.19772 7.75 8.75 7.75H18.75ZM9.25 18.25H18.25V10.75H9.25V18.25ZM17.75 6.5H7.75C7.05965 6.5 6.5 7.05965 6.5 7.75V17.75H5V7.75C5 6.23122 6.23122 5 7.75 5H17.75V6.5ZM13.7041 11.9775C14.1281 11.9775 14.4723 12.0923 14.7363 12.3203C15.0122 12.5563 15.1504 12.8764 15.1504 13.2803C15.1504 13.4801 15.1102 13.666 15.0303 13.8379C14.9583 13.9939 14.8482 14.146 14.7002 14.2939L13.5664 15.4043H15.2402V16.25H12.2764V15.5361L13.8897 13.9463C13.9937 13.8503 14.0646 13.7598 14.1006 13.6758C14.1525 13.5759 14.1777 13.4637 14.1777 13.3398C14.1777 13.1719 14.1217 13.0422 14.0098 12.9502C13.9058 12.8623 13.7741 12.8184 13.6143 12.8184C13.4503 12.8184 13.3122 12.8603 13.2002 12.9443C13.0803 13.0283 12.9841 13.1543 12.9121 13.3223L12.1924 12.9023C12.3484 12.6023 12.5424 12.3756 12.7744 12.2236C13.0263 12.0598 13.3363 11.9775 13.7041 11.9775Z" fill="white" fill-opacity="0.96"/>
</svg>
