<svg width="24" height="24" viewBox="0 0 24 24" fill="none" xmlns="http://www.w3.org/2000/svg">
<path d="M16.6865 2.95215C17.5237 2.72808 18.3849 3.22449 18.6094 4.06153L22.2949 17.8193C22.519 18.6565 22.0225 19.5167 21.1855 19.7412L17.8828 20.626C17.0458 20.8499 16.1854 20.3535 15.9609 19.5166L14.1045 12.5879V19.1475C14.1041 20.0139 13.4016 20.7166 12.5352 20.7168H9.11621C8.91508 20.7167 8.7236 20.6764 8.54688 20.6074C8.3702 20.6764 8.17861 20.7167 7.97754 20.7168H4.5586C3.69219 20.7165 2.98968 20.0138 2.98926 19.1475V4.9043C2.98945 4.03773 3.69206 3.33527 4.5586 3.33496H7.97754C8.17845 3.33502 8.37031 3.37355 8.54688 3.44239C8.72348 3.3735 8.91524 3.33503 9.11621 3.33496H12.5352C12.9568 3.33507 13.3391 3.50182 13.6211 3.77246L16.6865 2.95215ZM4.98926 18.7168H7.54688V5.33496H4.98926V18.7168ZM9.54688 18.7168H12.1045V5.33496H9.54688V18.7168ZM14.3184 5.65723L17.7813 18.583L20.252 17.9209L16.7881 4.99512L14.3184 5.65723Z" fill="white" fill-opacity="0.96"/>
</svg>
