<svg width="24" height="24" viewBox="0 0 24 24" fill="none" xmlns="http://www.w3.org/2000/svg">
<path d="M14.3662 4.66895C15.4075 4.29573 16.4827 4.30451 17.4443 4.52637C18.4029 4.74766 19.2869 5.18824 19.9775 5.7295C20.6459 6.25353 21.2392 6.95817 21.4394 7.75879L19.4999 8.24317C19.45 8.04396 19.2303 7.68567 18.7431 7.30371C18.2777 6.93898 17.6609 6.62937 16.9951 6.47559C16.3321 6.3226 15.6564 6.33167 15.0419 6.55176C14.4397 6.76767 13.8315 7.20872 13.3173 8.03125L13.3095 8.04297L13.3017 8.05567L6.17084 18.75L11.122 19.5127L10.8173 21.4893L4.78217 20.5606C3.84311 20.4158 3.37127 19.3454 3.89838 18.5547L11.6376 6.94629C12.3712 5.78356 13.3199 5.04413 14.3662 4.66895ZM16.4697 9.00098C17.2979 9.00124 17.9697 9.67272 17.9697 10.501C17.9697 11.3292 17.2979 12.0007 16.4697 12.001C15.6412 12.001 14.9697 11.3294 14.9697 10.501C14.9697 9.67255 15.6412 9.00098 16.4697 9.00098ZM7.46967 7.00098C8.29787 7.00124 8.96967 7.67272 8.96967 8.50098C8.96967 9.32924 8.29787 10.0007 7.46967 10.001C6.64124 10.001 5.96967 9.32941 5.96967 8.50098C5.96967 7.67255 6.64124 7.00098 7.46967 7.00098ZM6.96967 3.00098C9.57357 3.0012 10.6796 4.97001 10.9179 5.68457L9.96967 6.00098L9.02045 6.31739C8.92525 6.03176 8.36476 5.0012 6.96967 5.00098C5.51536 5.00098 5.01744 5.93174 4.93939 6.24317L2.99994 5.75879C3.25555 4.73655 4.42458 3.00098 6.96967 3.00098Z" fill="white" fill-opacity="0.23" style="mix-blend-mode:lighten"/>
<path d="M14.3662 4.66895C15.4075 4.29573 16.4827 4.30451 17.4443 4.52637C18.4029 4.74766 19.2869 5.18824 19.9775 5.7295C20.6459 6.25353 21.2392 6.95817 21.4394 7.75879L19.4999 8.24317C19.45 8.04396 19.2303 7.68567 18.7431 7.30371C18.2777 6.93898 17.6609 6.62937 16.9951 6.47559C16.3321 6.3226 15.6564 6.33167 15.0419 6.55176C14.4397 6.76767 13.8315 7.20872 13.3173 8.03125L13.3095 8.04297L13.3017 8.05567L6.17084 18.75L11.122 19.5127L10.8173 21.4893L4.78217 20.5606C3.84311 20.4158 3.37127 19.3454 3.89838 18.5547L11.6376 6.94629C12.3712 5.78356 13.3199 5.04413 14.3662 4.66895ZM16.4697 9.00098C17.2979 9.00124 17.9697 9.67272 17.9697 10.501C17.9697 11.3292 17.2979 12.0007 16.4697 12.001C15.6412 12.001 14.9697 11.3294 14.9697 10.501C14.9697 9.67255 15.6412 9.00098 16.4697 9.00098ZM7.46967 7.00098C8.29787 7.00124 8.96967 7.67272 8.96967 8.50098C8.96967 9.32924 8.29787 10.0007 7.46967 10.001C6.64124 10.001 5.96967 9.32941 5.96967 8.50098C5.96967 7.67255 6.64124 7.00098 7.46967 7.00098ZM6.96967 3.00098C9.57357 3.0012 10.6796 4.97001 10.9179 5.68457L9.96967 6.00098L9.02045 6.31739C8.92525 6.03176 8.36476 5.0012 6.96967 5.00098C5.51536 5.00098 5.01744 5.93174 4.93939 6.24317L2.99994 5.75879C3.25555 4.73655 4.42458 3.00098 6.96967 3.00098Z" fill="#545454" style="mix-blend-mode:color-dodge"/>
</svg>
