<svg width="2519" height="47" viewBox="0 0 2519 47" fill="none" xmlns="http://www.w3.org/2000/svg">
<path d="M1334.67 0C1334.67 2.94552 1337.05 5.33333 1340 5.33333C1342.95 5.33333 1345.33 2.94552 1345.33 0C1345.33 -2.94552 1342.95 -5.33333 1340 -5.33333C1337.05 -5.33333 1334.67 -2.94552 1334.67 0ZM2519 0L2509 -5.7735V5.7735L2519 0ZM-5.33333 47C-5.33333 49.9455 -2.94552 52.3333 0 52.3333C2.94552 52.3333 5.33333 49.9455 5.33333 47C5.33333 44.0545 2.94552 41.6667 0 41.6667C-2.94552 41.6667 -5.33333 44.0545 -5.33333 47ZM1340 0V1H1929.5V0V-1H1340V0ZM1929.5 0V1H2510V0V-1H1929.5V0ZM1929.5 0H1928.5V46H1929.5H1930.5V0H1929.5ZM1928.5 47V46H0V47V48H1928.5V47ZM1929.5 46H1928.5V46V47V48C1929.6 48 1930.5 47.1046 1930.5 46H1929.5Z" fill="#D90000"/>
</svg>
