<svg width="24" height="24" viewBox="0 0 24 24" fill="none" xmlns="http://www.w3.org/2000/svg">
<path d="M12 2C17.5228 2 22 6.47715 22 12C22 17.5228 17.5228 22 12 22C6.47715 22 2 17.5228 2 12C2 6.47715 6.47715 2 12 2ZM12 4C7.58172 4 4 7.58172 4 12C4 14.5307 5.1765 16.785 7.01074 18.251C7.00389 18.1682 7 18.0845 7 18V17.5C7 15.8431 8.34315 14.5 10 14.5H14C15.6569 14.5 17 15.8431 17 17.5V18C17 18.0846 16.9951 18.1682 16.9883 18.251C18.8229 16.7851 20 14.5309 20 12C20 7.58172 16.4183 4 12 4ZM12 6.5C13.6569 6.5 15 7.84315 15 9.5C15 11.1569 13.6569 12.5 12 12.5C10.3431 12.5 9 11.1569 9 9.5C9 7.84315 10.3431 6.5 12 6.5Z" fill="white" fill-opacity="0.23" style="mix-blend-mode:lighten"/>
<path d="M12 2C17.5228 2 22 6.47715 22 12C22 17.5228 17.5228 22 12 22C6.47715 22 2 17.5228 2 12C2 6.47715 6.47715 2 12 2ZM12 4C7.58172 4 4 7.58172 4 12C4 14.5307 5.1765 16.785 7.01074 18.251C7.00389 18.1682 7 18.0845 7 18V17.5C7 15.8431 8.34315 14.5 10 14.5H14C15.6569 14.5 17 15.8431 17 17.5V18C17 18.0846 16.9951 18.1682 16.9883 18.251C18.8229 16.7851 20 14.5309 20 12C20 7.58172 16.4183 4 12 4ZM12 6.5C13.6569 6.5 15 7.84315 15 9.5C15 11.1569 13.6569 12.5 12 12.5C10.3431 12.5 9 11.1569 9 9.5C9 7.84315 10.3431 6.5 12 6.5Z" fill="#545454" style="mix-blend-mode:color-dodge"/>
</svg>
