<svg width="46" height="46" viewBox="0 0 46 46" fill="none" xmlns="http://www.w3.org/2000/svg">
<path d="M30.6668 23.0003L15.3334 23.0003L15.3334 26.8337L30.6668 26.8337L30.6668 23.0003Z" fill="white" fill-opacity="0.23" style="mix-blend-mode:lighten"/>
<path d="M30.6668 23.0003L15.3334 23.0003L15.3334 26.8337L30.6668 26.8337L30.6668 23.0003Z" fill="#545454" style="mix-blend-mode:color-dodge"/>
<path d="M30.6668 30.667L15.3334 30.667L15.3334 34.5003L30.6668 34.5003L30.6668 30.667Z" fill="white" fill-opacity="0.23" style="mix-blend-mode:lighten"/>
<path d="M30.6668 30.667L15.3334 30.667L15.3334 34.5003L30.6668 34.5003L30.6668 30.667Z" fill="#545454" style="mix-blend-mode:color-dodge"/>
<path fill-rule="evenodd" clip-rule="evenodd" d="M32.5834 42.167C35.7591 42.167 38.3334 39.5926 38.3334 36.417L38.3334 14.5588C38.3334 13.1383 37.8069 11.7682 36.8566 10.7123L32.3794 5.73723C31.3573 4.60163 29.9287 3.92176 28.4113 3.84115L28.1062 3.83366L13.4167 3.83366C10.2411 3.83366 7.66675 6.40803 7.66675 9.58366L7.66675 36.417C7.66675 39.5926 10.2411 42.167 13.4168 42.167L32.5834 42.167ZM13.4168 38.3337C12.3582 38.3337 11.5001 37.4755 11.5001 36.417L11.5001 9.58366C11.5001 8.52512 12.3582 7.667 13.4167 7.667L24.9167 7.66699L24.9167 14.3753C24.9167 15.9631 26.2039 17.2503 27.7917 17.2503L34.5001 17.2503L34.5001 36.417C34.5001 37.4755 33.642 38.3337 32.5834 38.3337L13.4168 38.3337ZM28.7501 13.417L28.7501 7.78117C29.0462 7.887 29.3158 8.06281 29.5306 8.30152L34.0078 13.2766C34.0483 13.3217 34.0862 13.3687 34.122 13.417L28.7501 13.417Z" fill="white" fill-opacity="0.23" style="mix-blend-mode:lighten"/>
<path fill-rule="evenodd" clip-rule="evenodd" d="M32.5834 42.167C35.7591 42.167 38.3334 39.5926 38.3334 36.417L38.3334 14.5588C38.3334 13.1383 37.8069 11.7682 36.8566 10.7123L32.3794 5.73723C31.3573 4.60163 29.9287 3.92176 28.4113 3.84115L28.1062 3.83366L13.4167 3.83366C10.2411 3.83366 7.66675 6.40803 7.66675 9.58366L7.66675 36.417C7.66675 39.5926 10.2411 42.167 13.4168 42.167L32.5834 42.167ZM13.4168 38.3337C12.3582 38.3337 11.5001 37.4755 11.5001 36.417L11.5001 9.58366C11.5001 8.52512 12.3582 7.667 13.4167 7.667L24.9167 7.66699L24.9167 14.3753C24.9167 15.9631 26.2039 17.2503 27.7917 17.2503L34.5001 17.2503L34.5001 36.417C34.5001 37.4755 33.642 38.3337 32.5834 38.3337L13.4168 38.3337ZM28.7501 13.417L28.7501 7.78117C29.0462 7.887 29.3158 8.06281 29.5306 8.30152L34.0078 13.2766C34.0483 13.3217 34.0862 13.3687 34.122 13.417L28.7501 13.417Z" fill="#545454" style="mix-blend-mode:color-dodge"/>
</svg>
