<svg width="24" height="24" viewBox="0 0 24 24" fill="none" xmlns="http://www.w3.org/2000/svg">
<path d="M19.8525 6.75489C20.3567 6.80622 20.75 7.23233 20.75 7.75V19.75L20.7451 19.8525C20.6972 20.323 20.323 20.6972 19.8525 20.7451L19.75 20.75H7.75C7.23233 20.75 6.80622 20.3567 6.75488 19.8525L6.75 19.75V7.75C6.75 7.19772 7.19772 6.75 7.75 6.75H19.75L19.8525 6.75489ZM8.25 19.25H19.25V11H8.25V19.25ZM18.75 5.5H6.75C6.05965 5.5 5.5 6.05965 5.5 6.75V18.75H4V6.75C4 5.23122 5.23122 4 6.75 4H18.75V5.5ZM13.7041 12.7275C14.1281 12.7275 14.4723 12.8423 14.7363 13.0703C15.0122 13.3063 15.1504 13.6264 15.1504 14.0303C15.1504 14.2301 15.1102 14.416 15.0303 14.5879C14.9583 14.7439 14.8482 14.896 14.7002 15.0439L13.5664 16.1543H15.2402V17H12.2764V16.2861L13.8897 14.6963C13.9937 14.6003 14.0646 14.5098 14.1006 14.4258C14.1525 14.3259 14.1777 14.2137 14.1777 14.0898C14.1777 13.9219 14.1217 13.7922 14.0098 13.7002C13.9058 13.6123 13.7741 13.5684 13.6143 13.5684C13.4503 13.5684 13.3122 13.6103 13.2002 13.6943C13.0803 13.7783 12.9841 13.9043 12.9121 14.0723L12.1924 13.6523C12.3484 13.3523 12.5424 13.1256 12.7744 12.9736C13.0263 12.8098 13.3363 12.7275 13.7041 12.7275Z" fill="white" fill-opacity="0.23" style="mix-blend-mode:lighten"/>
<path d="M19.8525 6.75489C20.3567 6.80622 20.75 7.23233 20.75 7.75V19.75L20.7451 19.8525C20.6972 20.323 20.323 20.6972 19.8525 20.7451L19.75 20.75H7.75C7.23233 20.75 6.80622 20.3567 6.75488 19.8525L6.75 19.75V7.75C6.75 7.19772 7.19772 6.75 7.75 6.75H19.75L19.8525 6.75489ZM8.25 19.25H19.25V11H8.25V19.25ZM18.75 5.5H6.75C6.05965 5.5 5.5 6.05965 5.5 6.75V18.75H4V6.75C4 5.23122 5.23122 4 6.75 4H18.75V5.5ZM13.7041 12.7275C14.1281 12.7275 14.4723 12.8423 14.7363 13.0703C15.0122 13.3063 15.1504 13.6264 15.1504 14.0303C15.1504 14.2301 15.1102 14.416 15.0303 14.5879C14.9583 14.7439 14.8482 14.896 14.7002 15.0439L13.5664 16.1543H15.2402V17H12.2764V16.2861L13.8897 14.6963C13.9937 14.6003 14.0646 14.5098 14.1006 14.4258C14.1525 14.3259 14.1777 14.2137 14.1777 14.0898C14.1777 13.9219 14.1217 13.7922 14.0098 13.7002C13.9058 13.6123 13.7741 13.5684 13.6143 13.5684C13.4503 13.5684 13.3122 13.6103 13.2002 13.6943C13.0803 13.7783 12.9841 13.9043 12.9121 14.0723L12.1924 13.6523C12.3484 13.3523 12.5424 13.1256 12.7744 12.9736C13.0263 12.8098 13.3363 12.7275 13.7041 12.7275Z" fill="#545454" style="mix-blend-mode:color-dodge"/>
</svg>
