<svg width="24" height="24" viewBox="0 0 24 24" fill="none" xmlns="http://www.w3.org/2000/svg">
<path fill-rule="evenodd" clip-rule="evenodd" d="M17 21C19.2091 21 21 19.2091 21 17L21 7C21 4.79087 19.2091 3 17 3L7 3C4.79086 3 3 4.79087 3 7L3 17C3 19.2091 4.79086 21 7 21L17 21ZM7 19C5.89543 19 5 18.1046 5 17L5 7C5 5.89544 5.89543 5 7 5L17 5C18.1046 5 19 5.89543 19 7L19 17C19 18.1046 18.1046 19 17 19L7 19Z" fill="white" fill-opacity="0.23" style="mix-blend-mode:lighten"/>
<path fill-rule="evenodd" clip-rule="evenodd" d="M17 21C19.2091 21 21 19.2091 21 17L21 7C21 4.79087 19.2091 3 17 3L7 3C4.79086 3 3 4.79087 3 7L3 17C3 19.2091 4.79086 21 7 21L17 21ZM7 19C5.89543 19 5 18.1046 5 17L5 7C5 5.89544 5.89543 5 7 5L17 5C18.1046 5 19 5.89543 19 7L19 17C19 18.1046 18.1046 19 17 19L7 19Z" fill="#545454" style="mix-blend-mode:color-dodge"/>
<path d="M7 12L10.4286 15L16 9" stroke="white" stroke-opacity="0.23" style="mix-blend-mode:lighten" stroke-width="2"/>
<path d="M7 12L10.4286 15L16 9" stroke="#545454" style="mix-blend-mode:color-dodge" stroke-width="2"/>
</svg>
